<svg width="17" height="16" viewBox="0 0 17 16" fill="none" xmlns="http://www.w3.org/2000/svg">
<path fill-rule="evenodd" clip-rule="evenodd" d="M14.894 12.9284L7.87433 15.7801C6.31135 16.4108 4.51529 15.6567 3.88462 14.0938L1.01915 7.08775C0.388474 5.52477 1.14254 3.715 2.70553 3.08432L9.71152 0.218858C11.2745 -0.411819 13.0706 0.342251 13.715 1.90523L16.5667 8.92494C17.2111 10.4879 16.457 12.284 14.894 12.9284ZM4.33706 7.08775C3.69267 7.34825 2.96602 7.04662 2.70553 6.40223C2.44503 5.77156 2.74666 5.0312 3.39104 4.7707C4.03543 4.5102 4.76208 4.82554 5.02258 5.45622C5.28307 6.10061 4.98145 6.82726 4.33706 7.08775ZM9.27279 9.17173C8.6284 9.43223 7.90176 9.11689 7.64126 8.48621C7.38076 7.84182 7.68239 7.11517 8.32678 6.85468C8.95745 6.59418 9.69781 6.89581 9.95831 7.54019C10.2188 8.17087 9.90347 8.91123 9.27279 9.17173ZM7.18882 14.0938C6.55814 14.3542 5.83149 14.0526 5.57099 13.4082C5.3105 12.7776 5.61212 12.0509 6.25651 11.7904C6.88719 11.5299 7.61384 11.8315 7.87433 12.4759C8.13483 13.1066 7.8332 13.8333 7.18882 14.0938ZM14.2085 11.242C13.5641 11.5025 12.8375 11.2009 12.577 10.5565C12.3165 9.91209 12.6181 9.18544 13.2625 8.92494C13.8932 8.66444 14.6198 8.97978 14.8803 9.61046C15.1408 10.2548 14.8392 10.9815 14.2085 11.242ZM11.3431 4.22229C10.6987 4.48278 9.97202 4.16744 9.71152 3.53677C9.45103 2.89238 9.76637 2.16573 10.397 1.90523C11.0414 1.64474 11.7681 1.94636 12.0286 2.59075C12.2891 3.23514 11.9874 3.96179 11.3431 4.22229Z" fill="#8E8E90"/>
</svg>
