<svg width="17" height="12" viewBox="0 0 17 12" fill="none" xmlns="http://www.w3.org/2000/svg">
<path fill-rule="evenodd" clip-rule="evenodd" d="M2.17808 0.158203H15.4215C16.2006 0.158203 16.7998 0.817379 16.7998 1.53648V7.40914C16.2006 6.45034 15.1219 5.85109 13.9234 5.85109C12.9047 5.85109 11.9459 6.33049 11.3466 7.04959H1.87846V8.72749H10.6275C10.6275 8.90727 10.5676 9.08704 10.5676 9.26682C10.5676 9.98592 10.7474 10.5852 11.1069 11.1245H2.17808C1.39906 11.1245 0.799805 10.5252 0.799805 9.74622V1.53648C0.799805 0.817379 1.45898 0.158203 2.17808 0.158203ZM13.9833 11.8436C12.5451 11.8436 11.4065 10.705 11.4065 9.26682C11.4065 7.82861 12.5451 6.69004 13.9833 6.69004C15.4215 6.69004 16.5601 7.82861 16.5601 9.26682C16.5601 10.705 15.4215 11.8436 13.9833 11.8436ZM3.79606 1.77618C4.81479 1.77618 5.77359 1.77618 6.79231 1.77618L5.65374 4.71251H4.33539L5.29419 2.13573H4.51516V2.79491H3.79606V1.77618ZM14.7024 3.03461C14.6425 3.03461 14.6425 3.09453 14.7024 3.03461C14.5826 3.09453 14.5826 3.15446 14.6425 3.21438L14.8822 3.51401V3.87356V3.93348C14.8822 3.99341 14.9421 3.99341 15.0021 3.99341L15.3616 3.87356L15.7212 3.99341H15.7811C15.841 3.99341 15.841 3.93348 15.841 3.87356V3.51401L16.0807 3.21438C16.0807 3.21438 16.0807 3.21438 16.0807 3.15446C16.0807 3.09453 16.0807 3.03461 16.0208 3.03461L15.6612 2.97468L15.4815 2.67506C15.4215 2.67506 15.3616 2.67506 15.3616 2.67506L15.1818 2.97468L14.7024 3.03461ZM1.69868 3.03461C1.63876 3.09453 1.63876 3.15446 1.63876 3.21438L1.87846 3.51401V3.87356V3.93348C1.87846 3.99341 1.93838 3.99341 1.99831 3.99341L2.35786 3.87356L2.71741 3.99341H2.77733C2.83726 3.99341 2.83726 3.93348 2.83726 3.87356V3.51401L3.07696 3.21438C3.07696 3.21438 3.07696 3.21438 3.07696 3.15446C3.07696 3.09453 3.07696 3.03461 3.01703 3.03461L2.59756 2.97468L2.41778 2.67506C2.35786 2.67506 2.29793 2.67506 2.29793 2.67506L2.05823 2.97468L1.69868 3.03461ZM6.97209 1.47656C8.23052 1.47656 9.42902 1.47656 10.6275 1.47656L9.30917 5.07206H7.69119L8.88969 1.89603H7.93089V2.73498H6.97209V1.47656ZM10.8672 1.77618C11.8859 1.77618 12.8447 1.77618 13.8635 1.77618L12.7848 4.71251H11.4665L12.4253 2.13573H11.6462V2.79491H10.8672V1.77618Z" fill="#8E8E90"/>
</svg>
