<svg width="17" height="12" viewBox="0 0 17 12" fill="none" xmlns="http://www.w3.org/2000/svg">
<path fill-rule="evenodd" clip-rule="evenodd" d="M8.82553 8.90671C7.07633 8.90671 5.63582 7.87778 4.96701 6.38581H3.78373V2.93887H4.91556C5.58437 1.44691 7.07633 0.417969 8.82553 0.417969C10.5233 0.417969 12.0152 1.44691 12.684 2.93887H13.8159V6.43726H12.684C12.0152 7.92922 10.5233 8.90671 8.82553 8.90671ZM14.5876 4.01925H16.7998L15.668 6.12858L16.7998 8.2379H12.684V7.92922C12.8384 7.72343 13.0442 7.51765 13.1471 7.26041H14.5876V4.01925ZM3.01202 4.01925H0.799805L1.93164 6.12858L0.799805 8.18646H4.91556V7.87778C4.76122 7.67199 4.60688 7.4662 4.45254 7.20897H3.01202V4.01925ZM11.5522 10.8103L11.4493 11.582L12.1696 11.2218L12.8898 11.582L12.7869 10.8103L13.3529 10.2443L12.5812 10.09L12.221 9.36974L11.8609 10.09L11.0377 10.1929L11.5522 10.8103ZM8.20816 10.8103C8.15672 11.0675 8.15672 11.3247 8.10527 11.582C8.36251 11.4791 8.56829 11.3762 8.82553 11.2218C9.08276 11.3247 9.28855 11.4276 9.54578 11.582C9.49434 11.3247 9.49434 11.0675 9.44289 10.8103C9.59723 10.6045 9.80302 10.3987 10.0088 10.2443C9.75157 10.1929 9.49434 10.1414 9.2371 10.09C9.13421 9.88421 8.97987 9.62697 8.87698 9.36974C8.77408 9.62697 8.61974 9.83276 8.51685 10.09C8.25961 10.1414 8.00238 10.1929 7.74514 10.2443C7.84804 10.3987 8.00238 10.6045 8.20816 10.8103ZM4.81267 10.8103L4.70977 11.582L5.43003 11.2733L6.15029 11.6334L6.04739 10.8617L6.61331 10.2958L5.84161 10.1414L5.43003 9.36974L5.0699 10.09L4.24675 10.1929L4.81267 10.8103ZM8.82553 1.29257L9.90591 3.24755L12.0667 3.65913L10.5747 5.25398L10.8834 7.41475L8.87698 6.48871L6.87054 7.41475L7.12778 5.25398L5.58437 3.60768L7.74514 3.1961L8.82553 1.29257Z" fill="#8E8E90"/>
</svg>
