<svg width="17" height="16" viewBox="0 0 17 16" fill="none" xmlns="http://www.w3.org/2000/svg">
<path fill-rule="evenodd" clip-rule="evenodd" d="M8.36294 15.4342C4.76147 10.77 2.93121 8.46744 2.93121 8.46744C4.40722 3.98035 7.30021 2.09105 11.5511 2.7405C12.1415 2.03201 12.9681 1.79585 14.0308 1.97297C13.5585 3.15378 13.3224 3.74419 13.3224 3.74419C14.8574 3.68515 15.684 4.45268 15.8021 5.92869C15.3888 5.51541 14.9755 5.51541 14.5622 5.81061C16.8057 8.88072 17.4552 10.8881 16.4515 11.6556C15.4478 12.3641 14.6803 12.5412 14.0899 12.128C13.6176 11.8918 13.4404 11.5966 13.6176 11.1243C13.2633 10.4748 12.85 10.0615 12.2596 9.76633C10.6065 9.82537 9.66183 8.76264 9.42567 6.46006C9.30759 7.69991 9.54375 8.58552 10.1342 9.17593C9.48471 9.35305 9.18951 9.82537 9.18951 10.711C9.42567 12.4232 9.13047 14.0173 8.36294 15.4342ZM2.45888 8.11319C2.51792 8.05415 2.51792 8.05415 2.57696 7.99511C4.11202 3.92131 6.88693 1.67777 11.374 2.20914C11.5511 2.03201 11.7283 1.91393 11.9054 1.79585C10.2522 0.201755 7.35925 0.260796 5.94228 1.38257C4.58434 2.4453 3.75778 3.0357 2.3408 3.15378C2.28176 4.3346 2.81313 4.80692 3.99394 4.6298C2.69505 5.63349 1.69136 5.92869 0.923828 5.45637C1.04191 7.1095 1.27807 8.05415 2.45888 8.11319ZM12.791 6.75526C12.9091 6.46006 12.7319 6.40102 12.6729 6.04677C13.8537 6.34198 13.3814 6.63718 13.5585 6.93238C13.1452 6.99142 13.0271 6.93238 12.791 6.75526Z" fill="#8E8E90"/>
</svg>
