<svg width="25" height="25" viewBox="0 0 25 25" fill="none" xmlns="http://www.w3.org/2000/svg">
<path d="M22.075 10.6714H21.2695V10.6299H12.2695V14.6299H17.921C17.0965 16.9584 14.881 18.6299 12.2695 18.6299C8.95603 18.6299 6.26953 15.9434 6.26953 12.6299C6.26953 9.31638 8.95603 6.62988 12.2695 6.62988C13.799 6.62988 15.1905 7.20688 16.25 8.14938L19.0785 5.32088C17.2925 3.65638 14.9035 2.62988 12.2695 2.62988C6.74703 2.62988 2.26953 7.10738 2.26953 12.6299C2.26953 18.1524 6.74703 22.6299 12.2695 22.6299C17.792 22.6299 22.2695 18.1524 22.2695 12.6299C22.2695 11.9594 22.2005 11.3049 22.075 10.6714Z" fill="#FBC02D"/>
<path d="M3.42188 7.97538L6.70737 10.3849C7.59637 8.18388 9.74938 6.62988 12.2689 6.62988C13.7984 6.62988 15.1899 7.20688 16.2494 8.14938L19.0779 5.32088C17.2919 3.65638 14.9029 2.62988 12.2689 2.62988C8.42788 2.62988 5.09687 4.79838 3.42188 7.97538Z" fill="#E53935"/>
<path d="M12.2697 22.6302C14.8527 22.6302 17.1997 21.6417 18.9742 20.0342L15.8792 17.4152C14.8752 18.1757 13.6272 18.6302 12.2697 18.6302C9.66869 18.6302 7.46019 16.9717 6.62819 14.6572L3.36719 17.1697C5.02219 20.4082 8.38319 22.6302 12.2697 22.6302Z" fill="#4CAF50"/>
<path d="M22.075 10.6714L22.067 10.6299H21.2695H12.2695V14.6299H17.921C17.525 15.7484 16.8055 16.7129 15.8775 17.4154C15.878 17.4149 15.8785 17.4149 15.879 17.4144L18.974 20.0334C18.755 20.2324 22.2695 17.6299 22.2695 12.6299C22.2695 11.9594 22.2005 11.3049 22.075 10.6714Z" fill="#1565C0"/>
</svg>
