<svg width="15" height="16" viewBox="0 0 15 16" fill="none" xmlns="http://www.w3.org/2000/svg">
<path fill-rule="evenodd" clip-rule="evenodd" d="M7.20419 0.17367C7.00237 0.268122 6.72165 0.416296 6.58038 0.502969L6.32351 0.660536L7.85912 0.660756L9.39479 0.66105L9.21682 0.467889C8.77289 -0.0140601 7.88326 -0.144106 7.20419 0.17367ZM3.06891 1.29301C2.64252 1.50547 2.29891 1.90794 2.17275 2.34248C2.12189 2.5178 2.10369 4.4605 2.1183 8.15258L2.14031 13.6993L2.36239 14.0585C2.50007 14.2811 2.72112 14.5022 2.94378 14.6398L3.30302 14.8619H7.46105H11.6191L11.9783 14.6398C12.201 14.5022 12.422 14.2811 12.5597 14.0584L12.7818 13.6992V8V2.30079L12.5597 1.94155C12.422 1.71896 12.201 1.49784 11.9784 1.36016L11.6192 1.13808L7.53987 1.11797L3.46052 1.09786L3.06891 1.29301ZM4.43873 2.23892C4.55864 2.33983 4.67526 2.4224 4.69794 2.4224C4.72061 2.4224 4.86079 2.33983 5.00948 2.23892C5.63468 1.81466 6.21431 2.15247 6.1429 2.89943C6.12316 3.10609 4.89609 4.33052 4.70873 4.33052C4.55255 4.33052 3.50903 3.32685 3.35939 3.03271C3.21929 2.75727 3.26449 2.49784 3.49237 2.26997C3.77073 1.9916 4.13071 1.97979 4.43873 2.23892ZM1.17744 3.63472C0.578658 3.97231 0.231012 4.3692 0.0804166 4.88718C-0.106286 5.52949 -0.0150631 5.81593 0.863703 7.3461L1.62659 8.67445L1.64662 7.34647C1.65756 6.61609 1.65756 5.4252 1.64662 4.70004L1.62659 3.38153L1.17744 3.63472ZM6.38824 5.87824C6.54603 5.92205 6.82777 6.102 7.01969 6.28144C7.21028 6.45977 7.40887 6.6056 7.46105 6.6056C7.51323 6.6056 7.71234 6.45933 7.90344 6.28048C8.42495 5.79274 8.95754 5.69784 9.53049 5.99052C10.0299 6.2457 10.303 6.9906 10.1107 7.57324C9.9935 7.92837 7.70199 10.2017 7.4612 10.2017C7.24683 10.2017 5.00272 8.01409 4.84743 7.65375C4.63871 7.16945 4.78468 6.49141 5.17328 6.13994C5.32711 6.0008 5.79746 5.80697 5.99326 5.80191C6.05381 5.80037 6.23156 5.83472 6.38824 5.87824ZM13.2588 9.96926C13.2588 11.4291 13.273 12.6235 13.2902 12.6235C13.3076 12.6235 13.5214 12.5046 13.7656 12.3591C14.3609 12.0045 14.694 11.621 14.8385 11.1237C15.0281 10.4715 14.9505 10.2192 14.1019 8.72883C13.6868 7.99985 13.3273 7.38353 13.303 7.35924C13.2787 7.33487 13.2588 8.50947 13.2588 9.96926ZM11.3672 12.3227C11.9683 12.9324 12.0112 12.9963 12.0112 13.2802C12.0112 13.7061 11.7667 13.9445 11.3301 13.9445C11.0828 13.9445 10.9698 13.9025 10.837 13.7611C10.7422 13.6602 10.6266 13.5776 10.5801 13.5776C10.5337 13.5776 10.4181 13.6602 10.3232 13.7611C10.1904 13.9025 10.0774 13.9445 9.83007 13.9445C9.39061 13.9445 9.14901 13.7065 9.14901 13.2735C9.14901 12.9805 9.186 12.9258 9.79565 12.3161C10.1584 11.9533 10.5039 11.6695 10.5827 11.6695C10.6623 11.6695 11.0022 11.9525 11.3672 12.3227ZM5.70528 15.5321C6.14921 16.0141 7.03884 16.1441 7.71792 15.8263C7.91974 15.7319 8.20045 15.5837 8.34173 15.497L8.59859 15.3395L7.06299 15.3392L5.52731 15.339L5.70528 15.5321Z" fill="#0DFDE4"/>
</svg>
