<svg width="17" height="12" viewBox="0 0 17 12" fill="none" xmlns="http://www.w3.org/2000/svg">
<path fill-rule="evenodd" clip-rule="evenodd" d="M7.84445 11.3431L2.82952 11.6416C1.9937 11.7013 1.33699 11.0446 1.27729 10.2685L0.799674 2.38788C0.739973 1.55205 1.39669 0.835636 2.17281 0.775935L7.18773 0.477427C8.02355 0.417726 8.68027 1.07444 8.73997 1.85056L9.21758 9.73116C9.27729 10.567 8.68027 11.2834 7.84445 11.3431ZM4.08326 5.19385C3.66535 5.67146 3.18773 6.02967 2.82952 6.20877C3.24744 6.32817 3.72505 6.62668 4.14296 7.04459C4.62057 7.4625 4.91908 7.88041 5.15788 8.29832C5.27729 7.88041 5.57579 7.4028 5.9937 6.92519C6.41161 6.44758 6.82952 6.14907 7.24744 5.91026C6.82952 5.79086 6.35191 5.49235 5.934 5.07444C5.39669 4.71623 5.09818 4.23862 4.85938 3.88041C4.73997 4.29832 4.44147 4.77594 4.08326 5.19385ZM14.7698 11.5222L9.7549 11.2237C9.57579 11.2237 9.45639 11.164 9.27729 11.1043C9.57579 10.7461 9.7549 10.2685 9.6952 9.73116L9.21758 1.85056C9.21758 1.61176 9.15788 1.31325 9.03848 1.13414C9.33699 0.656532 9.8146 0.358024 10.4116 0.417726L15.4265 0.716233C16.2624 0.775935 16.8594 1.49235 16.7997 2.26847L16.3221 10.0894C16.2624 10.9252 15.5459 11.5222 14.7698 11.5222ZM12.3818 6.20877C12.2027 5.61176 11.725 5.49235 11.7847 4.83564C11.8445 4.35802 12.2027 3.99982 12.74 3.99982C13.2176 3.99982 13.5758 4.41773 13.5758 4.89534C13.5161 5.55205 13.0385 5.61176 12.7997 6.20877C13.2773 6.02967 13.4564 5.61176 14.0534 5.67146C14.531 5.67146 14.8892 6.08937 14.8892 6.56698C14.8295 7.04459 14.4713 7.4028 13.934 7.4028C13.337 7.3431 13.2176 6.92519 12.74 6.68638C12.7997 7.164 13.0385 7.58191 13.337 7.76101V7.88041L12.5609 7.82071L11.7847 7.76101V7.58191C12.143 7.4625 12.3818 7.04459 12.5012 6.56698C11.9639 6.74608 11.7847 7.2237 11.1877 7.164C10.7101 7.164 10.3519 6.74608 10.3519 6.26847C10.3519 5.79086 10.7698 5.43265 11.2474 5.43265C11.7847 5.55205 11.9639 5.96997 12.3818 6.20877Z" fill="#8E8E90"/>
</svg>
