<svg width="16" height="16" viewBox="0 0 16 16" fill="none" xmlns="http://www.w3.org/2000/svg">
<path fill-rule="evenodd" clip-rule="evenodd" d="M15.8968 7.32188C15.8467 6.7845 15.7224 6.18757 15.5461 5.63791L15.4524 5.34585L15.3942 5.46209C15.0909 6.06831 14.6472 6.82543 14.2216 7.46306L13.9611 7.85328L14.1248 8.03983C14.3292 8.27261 14.6789 8.58591 14.8145 8.65773C14.8994 8.70268 15.0009 8.71393 15.4034 8.72308L15.8897 8.73415L15.9089 8.50709C15.933 8.22133 15.9272 7.64743 15.8968 7.32188ZM15.4685 9.4897C14.9171 9.4887 14.5695 9.41078 14.3052 9.2289C14.2319 9.1785 14.0191 8.99035 13.8324 8.81084C13.5464 8.53589 13.487 8.49097 13.4552 8.52584C13.4345 8.54861 13.3377 8.66614 13.24 8.78702C13.1423 8.90789 12.9764 9.10668 12.8712 9.22876L12.6799 9.45069L12.958 9.91737C13.2818 10.4606 13.6315 11.1634 13.7437 11.4962C13.8205 11.7244 13.9857 12.379 14.0545 12.728L14.0891 12.9036L14.1918 12.7866C14.5017 12.4338 14.874 11.8635 15.1325 11.3455C15.3952 10.8192 15.5681 10.35 15.7082 9.78331C15.7341 9.67855 15.7621 9.56975 15.7704 9.54156C15.7841 9.49497 15.7564 9.49022 15.4685 9.4897ZM14.8654 4.1561C14.1983 3.06859 13.3378 2.20984 12.2697 1.56568C11.9495 1.37257 11.5324 1.15878 11.5132 1.17794C11.5059 1.18527 11.5527 1.34764 11.6172 1.53875C11.7912 2.05424 11.9166 2.57231 12.1163 3.60043C12.3406 4.75505 12.3986 5.02211 12.4876 5.30945C12.6479 5.82676 12.922 6.39442 13.274 6.93795L13.4713 7.24262L13.6783 6.9233C14.0752 6.31117 14.3797 5.77932 14.6833 5.16813C14.8514 4.82968 14.9957 4.5198 15.0039 4.47951C15.0149 4.42595 14.9777 4.33904 14.8654 4.1561ZM13.4171 13.4901C13.3387 12.8859 13.1385 12.0072 12.992 11.6236C12.8749 11.3169 12.6136 10.8055 12.3466 10.3605L12.1388 10.0142L11.9896 10.1578C11.7331 10.4046 11.381 10.7007 11.1336 10.8778L10.8957 11.048L10.9642 11.2637C11.1095 11.7215 11.1629 12.0573 11.1643 12.5231C11.1659 13.0236 11.1401 13.1404 10.9315 13.578C10.7114 14.0398 10.2193 14.656 9.66743 15.161C9.41492 15.3921 9.37282 15.4417 9.4413 15.4277C9.48754 15.4182 9.6177 15.3964 9.73051 15.3791C10.8764 15.2039 12.1812 14.6069 13.1663 13.8071C13.3154 13.686 13.4353 13.585 13.4329 13.5825C13.4305 13.58 13.4234 13.5385 13.4171 13.4901ZM12.7183 7.45374C12.2707 6.79009 11.9246 6.06582 11.7236 5.37228C11.6825 5.23019 11.5633 4.67121 11.4587 4.13008C11.1281 2.41888 10.9504 1.76476 10.6403 1.11887C10.4652 0.754079 10.5216 0.797505 10.0821 0.688821C9.55839 0.559274 8.6963 0.478662 8.14817 0.507965C7.00753 0.568915 6.08332 0.802604 5.12998 1.2711C4.74914 1.45825 4.17765 1.79863 4.17765 1.83828C4.17765 1.84985 4.26667 1.883 4.37544 1.91195C4.69888 1.99804 5.21775 2.21344 5.69714 2.46064C7.71827 3.50276 10.1184 5.80271 12.101 8.59719L12.2445 8.79947L12.3616 8.66872C12.5226 8.48883 12.9981 7.89718 12.9963 7.8789C12.9955 7.87069 12.8704 7.67937 12.7183 7.45374ZM11.5237 9.09279C10.3391 7.41371 8.95733 5.86281 7.62072 4.71206C6.16039 3.4548 4.7421 2.67921 3.55323 2.48775L3.37232 2.45859L3.17189 2.65591C2.08982 3.72107 1.33364 5.13759 1.05857 6.61451C0.992202 6.97089 0.989184 6.96031 1.18144 7.04678C2.18277 7.4972 3.56243 7.8982 6.46326 8.58204C7.7944 8.89585 8.34968 9.04312 8.77897 9.19626C9.49064 9.45014 9.89206 9.68898 10.2943 10.0979L10.5651 10.3732L10.7485 10.2341C11.0735 9.98767 11.7085 9.41749 11.7085 9.37207C11.7085 9.36246 11.6253 9.23678 11.5237 9.09279ZM10.3918 12.0982C10.3375 11.7846 10.2777 11.5446 10.2439 11.5045C10.2336 11.4923 10.0179 11.5865 9.76451 11.714C8.71629 12.2415 7.55212 12.6395 6.19634 12.934C5.40139 13.1067 4.36184 13.2615 3.6502 13.3133C3.5132 13.3232 3.35301 13.3383 3.2942 13.3469L3.1873 13.3624L3.36745 13.53C4.57898 14.6569 6.1593 15.3369 7.9 15.4804L8.12068 15.4986L8.50071 15.1835C9.03566 14.7398 9.65503 14.1268 9.91032 13.7884C10.3882 13.1548 10.5042 12.7475 10.3918 12.0982ZM9.75478 10.6014C9.39013 10.2116 8.73923 9.91854 7.59039 9.62701C7.30085 9.55352 6.5563 9.37339 5.93581 9.2267C3.44317 8.6374 1.95837 8.20846 1.10455 7.83104C1.01793 7.79274 0.940072 7.76142 0.931545 7.76142C0.904235 7.76142 0.954783 8.69205 0.999352 9.00948C1.17247 10.2429 1.6012 11.3218 2.32958 12.3571L2.52204 12.6307L2.93228 12.611C4.9784 12.5127 7.10358 12.0497 8.80748 11.331C9.16512 11.1801 9.89168 10.8064 9.89168 10.7732C9.89168 10.7592 9.83009 10.6819 9.75478 10.6014Z" fill="#85929F"/>
</svg>
