<svg width="80" height="80" viewBox="0 0 80 80" fill="none" xmlns="http://www.w3.org/2000/svg">
<path d="M60.6242 61.4955L43.6219 78.5036C42.658 79.462 41.354 80 39.9947 80C38.6355 80 37.3315 79.462 36.3676 78.5036L1.4911 43.6272C0.535876 42.6628 0 41.3603 0 40.0029C0 38.6455 0.535876 37.343 1.4911 36.3787L11.1112 26.7644H19.7141C29.4272 26.7644 33.8681 24.4393 35.4085 18.5045H19.3653L36.3676 1.49635C37.3315 0.53796 38.6355 0 39.9947 0C41.354 0 42.658 0.53796 43.6219 1.49635L60.6242 18.5045H51.7481C39.0647 18.5045 35.3503 22.4106 35.3503 33.2572V46.7486C35.3503 57.5952 39.0647 61.5072 51.7481 61.5072L60.6242 61.4955Z" fill="#31B7BC"/>
<path d="M78.5042 36.3845L68.8899 26.7702H52.1899C46.3248 26.7702 44.8716 28.4733 44.8716 33.7455V46.3591C44.8716 51.7185 46.3248 53.2937 52.248 53.2937H68.826L78.5042 43.6097C79.4552 42.6478 79.9885 41.3497 79.9885 39.9971C79.9885 38.6444 79.4552 37.3464 78.5042 36.3845ZM62.275 48.6319H57.4039V39.1339H62.275V48.6319ZM62.275 36.1636H57.4039V31.4204H62.275V36.1636Z" fill="#31B7BC"/>
</svg>
