<svg width="80" height="46" fill="none" xmlns="http://www.w3.org/2000/svg"><path d="M18.705 9.406v2.43c0 4.756-2.536 9.3-8.877 9.3C3.488 21.136 0 16.803 0 10.568 0 4.333 3.487 0 9.828 0c4.65 0 7.61 2.43 8.349 6.13h-4.439c-.422-1.48-1.796-2.431-3.91-2.431-3.699 0-5.495 2.853-5.495 6.763 0 3.91 1.796 6.764 5.495 6.764 3.17 0 4.545-1.902 4.65-4.439H9.723V9.3h8.982v.106Zm14.901 5.812h-7.714L24.2 20.713h-4.227L26.42.423h6.552l6.447 20.29h-4.333l-1.48-5.495Zm-6.658-3.699h5.496l-2.114-7.08h-1.268l-2.114 7.08ZM41.744.317h6.552l3.382 8.243h.74L55.694.317h6.446v20.29h-3.91V5.496h-.74l-3.382 8.244h-4.227L46.5 5.495h-.74v15.113h-3.91L41.745.318Zm35.297 16.592-.634 3.804H66.156V.317H80l-.74 3.805h-8.877v4.227h8.138l-.635 3.699h-7.503v4.755l6.658.106Z" fill="#000"/><path d="M12.999 35.509a4.263 4.263 0 0 1 2.113 3.698c0 3.91-3.17 5.813-6.869 5.813H0l3.382-18.917h7.503c2.642 0 5.073 1.48 5.073 4.333 0 2.008-1.057 3.699-2.854 4.544l-.104.53Zm-5.073 7.926c2.853 0 5.39-1.269 5.39-4.333 0-2.325-2.114-3.17-4.122-3.17H3.382l-1.374 7.503h5.918Zm-4.227-9.089H9.51c2.537 0 4.65-.951 4.65-3.804 0-2.008-1.796-2.854-3.593-2.854H4.861L3.7 34.346Zm21.241 9.089-.845 1.585h-7.398l3.382-18.917h13.95l-.845 1.585H21.559l-1.163 6.658h9.3l-.845 1.585h-8.772l-1.374 7.504h6.236Zm19.34 1.585h-1.797l-1.056-6.13h-8.56l-3.17 6.13h-1.903l9.934-18.917h3.17L44.28 45.02Zm-10.568-7.715h7.398L39.525 27.9h-1.057l-4.756 9.405Zm25.363-9.617H52.84L49.775 45.02H47.98l3.065-17.332H44.81l.21-1.585h14.373l-.317 1.585Z" fill="#2BDC24"/><path d="M72.074 45.126H61.717L65.1 26.103h10.357l-3.382 19.023Z" fill="url(#a)"/><path d="M66.896 45.126H56.539l3.487-19.023h10.357l-3.487 19.023Z" fill="url(#b)"/><defs><linearGradient id="a" x1="68.587" y1="45.314" x2="68.587" y2="27.592" gradientUnits="userSpaceOnUse"><stop offset=".193" stop-color="#2BDC24" stop-opacity="0"/><stop offset="1" stop-color="#2BDC24"/></linearGradient><linearGradient id="b" x1="63.461" y1="26.029" x2="63.461" y2="46.164" gradientUnits="userSpaceOnUse"><stop offset=".193" stop-color="#2BDC24" stop-opacity="0"/><stop offset="1" stop-color="#2BDC24"/></linearGradient></defs></svg>